<svg xmlns="http://www.w3.org/2000/svg" viewBox="0 0 200 200" width="200" height="200">
  <defs>
    <linearGradient id="crownGradient" x1="0%" y1="0%" x2="100%" y2="100%">
      <stop offset="0%" style="stop-color:#d4af37;stop-opacity:1" />
      <stop offset="100%" style="stop-color:#b8941f;stop-opacity:1" />
    </linearGradient>
    <linearGradient id="snakeGradient" x1="0%" y1="0%" x2="100%" y2="100%">
      <stop offset="0%" style="stop-color:#c8a882;stop-opacity:1" />
      <stop offset="100%" style="stop-color:#a08660;stop-opacity:1" />
    </linearGradient>
  </defs>
  
  <!-- Background circles and decorative elements -->
  <circle cx="50" cy="80" r="3" fill="#d4af37" opacity="0.6"/>
  <circle cx="170" cy="60" r="2" fill="#d4af37" opacity="0.4"/>
  <circle cx="40" cy="140" r="2.5" fill="#d4af37" opacity="0.5"/>
  <circle cx="160" cy="150" r="2" fill="#d4af37" opacity="0.7"/>
  
  <!-- Decorative squares -->
  <rect x="30" y="50" width="4" height="4" fill="#d4af37" opacity="0.6" transform="rotate(45 32 52)"/>
  <rect x="180" y="90" width="3" height="3" fill="#d4af37" opacity="0.5" transform="rotate(45 181.5 91.5)"/>
  <rect x="25" y="120" width="5" height="5" fill="#d4af37" opacity="0.4" transform="rotate(45 27.5 122.5)"/>
  <rect x="175" y="120" width="4" height="4" fill="#d4af37" opacity="0.6" transform="rotate(45 177 122)"/>
  
  <!-- Crown -->
  <path d="M100 40 L85 65 L95 65 L100 55 L105 65 L115 65 L100 40 Z" fill="url(#crownGradient)" stroke="#b8941f" stroke-width="1"/>
  <path d="M80 65 L120 65 L118 70 L82 70 Z" fill="url(#crownGradient)" stroke="#b8941f" stroke-width="1"/>
  
  <!-- Crown jewels -->
  <circle cx="90" cy="55" r="2" fill="#ff6b6b"/>
  <circle cx="100" cy="50" r="2.5" fill="#ff6b6b"/>
  <circle cx="110" cy="55" r="2" fill="#ff6b6b"/>
  
  <!-- Snake head -->
  <ellipse cx="100" cy="85" rx="12" ry="15" fill="url(#snakeGradient)" stroke="#8a6d47" stroke-width="1"/>
  
  <!-- Snake eyes -->
  <ellipse cx="95" cy="80" rx="2" ry="3" fill="#000"/>
  <ellipse cx="105" cy="80" rx="2" ry="3" fill="#000"/>
  
  <!-- Snake nostrils -->
  <ellipse cx="98" cy="90" rx="1" ry="1.5" fill="#000" opacity="0.6"/>
  <ellipse cx="102" cy="90" rx="1" ry="1.5" fill="#000" opacity="0.6"/>
  
  <!-- Heart shape (snake body) -->
  <path d="M100 110 C85 95, 60 95, 60 120 C60 145, 100 170, 100 170 C100 170, 140 145, 140 120 C140 95, 115 95, 100 110 Z" 
        fill="url(#snakeGradient)" stroke="#8a6d47" stroke-width="2"/>
  
  <!-- Inner heart detail -->
  <path d="M100 115 C90 105, 75 105, 75 120 C75 135, 100 155, 100 155 C100 155, 125 135, 125 120 C125 105, 110 105, 100 115 Z" 
        fill="none" stroke="#8a6d47" stroke-width="1" opacity="0.5"/>
  
  <!-- More decorative elements -->
  <rect x="60" y="40" width="3" height="8" fill="#d4af37" opacity="0.5" transform="rotate(30 61.5 44)"/>
  <rect x="140" y="45" width="3" height="6" fill="#d4af37" opacity="0.6" transform="rotate(-20 141.5 48)"/>
  <rect x="45" y="100" width="4" height="4" fill="#d4af37" opacity="0.4" transform="rotate(60 47 102)"/>
  <rect x="155" y="105" width="3" height="7" fill="#d4af37" opacity="0.5" transform="rotate(-45 156.5 108.5)"/>
</svg> 